
<svg width="120" height="40" viewBox="0 0 120 40" fill="none" xmlns="http://www.w3.org/2000/svg">
  <path d="M20 5C11.7157 5 5 11.7157 5 20C5 28.2843 11.7157 35 20 35C28.2843 35 35 28.2843 35 20C35 11.7157 28.2843 5 20 5Z" fill="#4389B8"/>
  <path d="M20 10C14.4772 10 10 14.4772 10 20C10 25.5228 14.4772 30 20 30C25.5228 30 30 25.5228 30 20C30 14.4772 25.5228 10 20 10Z" fill="white"/>
  <path d="M45 15H50C53.3137 15 56 17.6863 56 21C56 24.3137 53.3137 27 50 27H45V15Z" fill="#5B9F7B"/>
  <path d="M60 15H65C68.3137 15 71 17.6863 71 21C71 24.3137 68.3137 27 65 27H60V15Z" fill="#5B9F7B"/>
  <path d="M75 15H80C83.3137 15 86 17.6863 86 21C86 24.3137 83.3137 27 80 27H75V15Z" fill="#5B9F7B"/>
  <path d="M90 15H110C113.314 15 116 17.6863 116 21C116 24.3137 113.314 27 110 27H90V15Z" fill="#4389B8"/>
  <rect x="45" y="30" width="71" height="3" fill="#333333"/>
</svg>
